<svg version="1.0" xmlns="http://www.w3.org/2000/svg" width="1800.000000pt" height="1800.000000pt" viewBox="0 0 1800.000000 1800.000000" preserveAspectRatio="xMidYMid meet" style="width: 2454.12px; height: auto;"> <g transform="translate(0.000000,1800.000000) scale(0.100000,-0.100000)" fill="#000000" stroke="none"> <circle r="9000" cx="9000" cy="9000" fill="#fbfbfb" /> <path d="M8779 16615 c-3 -2 -68 -5 -144 -6 -77 0 -178 -7 -225 -15 -47 -7 -112 -14 -145 -14 -33 0 -89 -5 -125 -11 -36 -5 -103 -14 -150 -19 -125 -12 -310 -39 -320 -45 -6 -3 -51 -13 -102 -21 -112 -19 -160 -27 -258 -48 -41 -9 -100 -21 -130 -27 -30 -6 -73 -17 -95 -25 -23 -8 -50 -14 -60 -14 -11 0 -41 -7 -67 -15 -27 -8 -69 -21 -95 -29 -103 -29 -164 -48 -308 -95 -214 -71 -268 -90 -330 -116 -16 -7 -48 -20 -70 -28 -69 -26 -198 -79 -263 -108 -34 -16 -65 -29 -68 -29 -7 0 -173 -79 -296 -141 -194 -97 -210 -105 -248 -127 -19 -12 -55 -32 -80 -45 -25 -14 -61 -34 -80 -46 -19 -11 -44 -25 -55 -31 -11 -6 -33 -19 -50 -30 -16 -11 -39 -24 -50 -29 -11 -5 -37 -21 -58 -35 -21 -14 -40 -26 -42 -26 -3 0 -34 -20 -71 -45 -36 -25 -67 -45 -70 -45 -3 0 -40 -26 -82 -57 -43 -32 -85 -62 -94 -68 -90 -55 -404 -290 -448 -335 -3 -3 -30 -25 -60 -50 -30 -25 -60 -49 -66 -55 -6 -5 -47 -41 -90 -80 -261 -232 -529 -506 -743 -760 -24 -27 -54 -63 -68 -80 -39 -45 -284 -371 -336 -448 -26 -37 -67 -97 -92 -133 -25 -36 -45 -67 -45 -69 0 -2 -19 -32 -43 -67 -80 -117 -221 -352 -273 -453 -13 -27 -29 -57 -34 -65 -5 -8 -11 -22 -14 -30 -4 -8 -15 -28 -26 -45 -11 -16 -22 -37 -26 -45 -3 -8 -9 -22 -14 -30 -37 -62 -209 -428 -249 -530 -12 -30 -26 -64 -30 -75 -5 -11 -16 -40 -26 -65 -9 -25 -23 -57 -31 -72 -8 -14 -14 -34 -14 -45 0 -10 -7 -27 -15 -37 -8 -11 -15 -28 -15 -39 0 -10 -6 -31 -14 -45 -15 -30 -33 -81 -46 -127 -5 -16 -14 -46 -21 -65 -6 -19 -17 -51 -24 -70 -20 -56 -50 -165 -121 -435 -17 -67 -40 -164 -59 -255 -9 -41 -20 -95 -26 -120 -15 -63 -40 -204 -49 -275 -17 -132 -32 -232 -41 -275 -41 -191 -67 -822 -51 -1240 11 -293 33 -564 51 -650 5 -25 15 -88 21 -140 25 -205 47 -329 95 -545 7 -33 21 -96 30 -140 9 -44 23 -104 31 -132 67 -250 101 -371 119 -423 18 -51 33 -96 60 -175 13 -38 34 -95 45 -125 12 -30 26 -68 31 -85 5 -16 13 -39 18 -50 5 -11 16 -40 26 -65 10 -25 21 -54 26 -65 4 -11 20 -49 35 -85 40 -100 65 -152 227 -480 124 -251 219 -422 380 -685 7 -11 24 -36 40 -56 15 -20 27 -39 27 -42 0 -3 21 -36 47 -74 26 -37 67 -97 91 -133 53 -77 128 -175 159 -210 13 -14 23 -28 23 -32 0 -4 10 -18 23 -31 12 -14 47 -56 77 -93 239 -295 805 -878 978 -1008 15 -11 46 -38 68 -58 65 -60 384 -307 489 -378 28 -18 98 -66 156 -105 59 -40 113 -75 120 -78 8 -4 48 -29 89 -56 41 -28 92 -59 112 -70 21 -11 57 -33 80 -48 45 -29 50 -32 133 -77 28 -15 64 -36 80 -46 37 -23 469 -240 478 -240 4 0 37 -14 74 -31 102 -46 124 -55 173 -74 25 -10 59 -23 75 -30 17 -7 50 -21 75 -30 25 -9 60 -23 78 -31 18 -8 41 -14 52 -14 10 0 21 -4 24 -9 3 -5 18 -12 33 -15 16 -4 42 -13 58 -20 17 -8 57 -21 90 -31 33 -9 76 -23 95 -30 19 -7 62 -21 95 -30 33 -10 75 -24 93 -31 18 -8 41 -14 51 -14 9 0 37 -6 62 -14 55 -17 170 -48 324 -86 28 -7 70 -16 95 -21 47 -8 113 -22 190 -41 50 -12 186 -36 270 -47 30 -5 96 -13 145 -20 50 -7 116 -16 147 -22 189 -32 430 -44 913 -44 483 0 710 11 904 45 31 5 99 14 151 21 163 19 338 48 420 68 25 6 81 18 125 26 44 9 103 23 131 31 28 7 59 14 70 14 10 0 36 6 59 14 39 13 104 30 175 46 19 5 49 13 65 18 17 6 77 25 135 42 58 18 121 38 140 45 77 27 106 37 135 45 17 5 55 18 85 30 30 12 69 26 85 31 17 5 39 13 50 18 11 5 38 15 60 24 55 21 192 76 235 95 19 8 51 21 70 29 19 9 42 19 50 24 8 5 22 12 30 15 29 12 336 167 392 198 31 17 78 43 105 57 26 15 64 36 83 48 19 11 42 24 50 27 8 4 74 43 145 86 72 44 139 85 150 91 11 7 36 23 55 37 19 14 51 34 70 44 19 11 40 25 47 30 7 6 62 47 124 91 194 139 441 326 469 355 3 3 30 25 60 50 30 25 60 49 66 55 6 5 53 48 105 95 336 304 750 742 954 1010 28 36 52 67 55 70 5 5 57 76 136 183 41 57 184 268 184 272 0 2 19 32 42 67 48 71 50 75 108 168 23 36 45 72 50 80 97 154 249 453 377 740 13 30 30 69 37 85 17 37 73 177 92 228 38 101 47 124 59 152 7 17 15 39 18 50 3 11 15 45 27 75 38 100 82 235 125 385 9 33 23 83 31 110 17 57 41 152 54 210 4 22 13 58 18 80 10 38 27 116 58 265 22 107 44 243 44 271 0 14 4 39 10 55 13 39 38 241 55 454 8 96 17 186 20 200 11 44 7 920 -5 1010 -6 47 -15 141 -20 210 -10 138 -32 322 -49 415 -6 33 -17 103 -26 155 -18 109 -40 225 -57 290 -6 25 -14 63 -18 85 -7 38 -12 58 -47 200 -20 81 -67 247 -85 300 -5 17 -14 46 -18 65 -4 19 -28 96 -53 170 -63 186 -68 201 -84 237 -7 17 -13 37 -13 45 0 8 -7 23 -15 34 -8 10 -15 27 -15 36 0 9 -6 29 -14 45 -8 15 -25 53 -36 83 -12 30 -33 80 -47 110 -13 30 -30 69 -37 85 -68 154 -258 531 -332 660 -19 33 -39 69 -44 80 -6 11 -18 32 -28 47 -9 15 -37 60 -61 100 -47 76 -275 420 -314 473 -12 16 -62 83 -112 148 -49 66 -97 129 -105 141 -28 40 -162 205 -196 240 -5 6 -43 49 -83 96 -90 105 -401 422 -542 551 -186 172 -430 374 -553 459 -11 8 -47 34 -78 57 -148 112 -560 385 -653 433 -11 6 -33 19 -50 29 -16 11 -50 31 -75 44 -25 14 -61 34 -80 45 -37 22 -384 195 -460 230 -25 11 -85 39 -133 61 -49 23 -92 41 -97 41 -5 0 -21 6 -37 14 -15 8 -46 21 -68 29 -51 19 -144 56 -170 67 -11 4 -29 11 -40 13 -11 3 -45 15 -75 27 -30 12 -68 25 -85 30 -16 5 -46 14 -65 21 -111 38 -97 34 -270 84 -123 36 -248 69 -345 90 -44 9 -98 24 -120 31 -23 8 -51 14 -64 14 -12 0 -50 7 -84 14 -125 30 -213 46 -244 46 -17 0 -44 5 -59 10 -43 17 -261 46 -509 69 -66 6 -158 16 -205 22 -170 20 -797 39 -811 24z m826 -260 c72 -9 162 -20 200 -25 39 -6 117 -15 175 -20 58 -5 118 -14 133 -19 16 -6 46 -11 69 -11 22 0 70 -7 107 -14 36 -8 102 -22 146 -31 44 -9 106 -22 137 -30 32 -8 66 -15 77 -15 10 0 41 -6 67 -14 61 -17 136 -36 189 -47 90 -18 309 -79 365 -102 14 -5 39 -13 55 -17 17 -5 75 -24 130 -44 55 -20 127 -46 160 -57 53 -18 98 -35 260 -96 22 -8 68 -28 102 -44 35 -16 65 -29 68 -29 4 0 48 -20 98 -44 51 -24 99 -46 107 -50 8 -3 22 -10 30 -15 8 -5 42 -22 75 -39 105 -52 277 -143 395 -209 14 -8 39 -23 55 -33 17 -11 39 -24 50 -29 11 -5 37 -21 58 -35 21 -14 40 -26 42 -26 6 0 304 -201 330 -222 11 -9 112 -85 225 -169 113 -84 216 -163 230 -175 14 -12 63 -55 110 -94 315 -269 608 -563 851 -855 46 -55 89 -106 96 -113 19 -19 275 -361 313 -417 18 -27 56 -84 84 -125 51 -75 116 -176 126 -195 3 -5 17 -29 33 -52 15 -24 27 -45 27 -47 0 -3 12 -22 26 -43 14 -21 30 -47 35 -58 5 -11 19 -36 30 -55 36 -59 194 -356 229 -429 4 -9 12 -25 17 -37 6 -11 37 -81 68 -154 31 -73 61 -141 65 -149 9 -17 62 -149 87 -216 8 -22 21 -52 29 -67 8 -14 14 -33 14 -41 0 -9 6 -28 14 -44 15 -30 17 -36 72 -208 20 -60 42 -126 49 -145 14 -40 37 -118 60 -205 9 -33 22 -82 30 -110 7 -27 21 -86 30 -130 20 -97 38 -177 59 -270 19 -81 33 -161 45 -260 5 -38 12 -77 16 -86 6 -16 15 -91 35 -309 6 -63 17 -164 25 -225 18 -132 22 -1036 5 -1126 -6 -30 -17 -119 -25 -199 -20 -192 -23 -217 -40 -340 -24 -174 -46 -309 -63 -380 -6 -25 -18 -81 -27 -125 -9 -44 -23 -100 -31 -125 -8 -25 -14 -54 -14 -65 0 -11 -6 -40 -14 -65 -15 -49 -36 -122 -62 -215 -9 -33 -22 -76 -29 -95 -7 -19 -20 -62 -30 -95 -9 -33 -22 -71 -27 -85 -6 -14 -14 -38 -19 -55 -16 -62 -47 -143 -75 -197 -8 -14 -14 -33 -14 -41 0 -9 -6 -28 -14 -44 -18 -36 -35 -78 -81 -188 -67 -162 -227 -494 -311 -645 -20 -36 -47 -85 -61 -110 -13 -25 -28 -52 -33 -60 -5 -8 -40 -67 -76 -130 -63 -107 -92 -152 -228 -348 -28 -40 -56 -82 -63 -94 -6 -11 -15 -23 -21 -27 -5 -3 -21 -25 -35 -48 -25 -40 -180 -238 -203 -258 -6 -5 -26 -30 -44 -55 -19 -25 -41 -52 -49 -62 -9 -9 -59 -66 -111 -126 -109 -126 -512 -531 -675 -678 -202 -183 -454 -385 -648 -519 -32 -22 -97 -68 -145 -103 -48 -34 -94 -65 -102 -69 -8 -4 -41 -25 -75 -48 -105 -72 -361 -223 -503 -297 -75 -39 -184 -95 -241 -125 -141 -74 -163 -85 -246 -119 -16 -6 -46 -19 -65 -27 -42 -18 -180 -73 -232 -93 -193 -72 -195 -73 -368 -129 -148 -49 -267 -84 -370 -110 -36 -9 -87 -23 -114 -31 -26 -8 -55 -14 -63 -14 -9 0 -36 -7 -62 -15 -25 -8 -82 -22 -126 -30 -126 -25 -225 -45 -295 -60 -121 -27 -185 -38 -255 -45 -204 -20 -306 -32 -360 -42 -88 -16 -1079 -23 -1230 -8 -66 6 -171 15 -233 20 -62 5 -121 12 -131 15 -10 3 -58 10 -107 15 -49 5 -136 19 -194 30 -58 11 -118 23 -135 26 -53 9 -168 35 -221 50 -28 8 -61 14 -73 14 -12 0 -30 4 -40 10 -10 5 -47 16 -82 23 -35 8 -91 22 -124 32 -33 10 -71 20 -85 22 -14 3 -39 11 -57 19 -17 8 -39 14 -50 14 -10 0 -38 6 -63 14 -25 8 -72 22 -105 32 -33 9 -75 23 -93 30 -18 8 -38 14 -45 14 -7 0 -24 6 -39 14 -15 8 -40 17 -57 21 -17 4 -33 11 -36 16 -4 5 -15 9 -25 9 -11 0 -34 6 -52 14 -18 8 -53 22 -78 32 -25 9 -73 30 -108 46 -35 15 -68 28 -74 28 -5 0 -22 6 -36 14 -15 7 -57 27 -95 45 -115 53 -199 96 -203 103 -9 15 10 35 69 73 207 132 437 346 712 665 55 63 103 117 106 120 7 5 106 129 168 210 50 64 118 163 228 330 52 80 103 156 112 170 10 14 20 32 24 40 4 8 16 29 27 45 11 17 24 39 30 50 6 11 19 34 29 50 11 17 30 50 42 75 13 25 35 63 49 85 46 73 50 80 60 102 5 12 20 39 33 60 13 21 39 65 57 98 59 107 76 139 110 199 53 93 79 144 215 416 451 904 556 1112 604 1190 11 19 25 44 30 56 5 12 27 48 48 80 21 32 40 64 43 69 47 95 217 298 297 355 93 66 131 54 248 -80 88 -100 79 -88 159 -209 94 -142 94 -143 106 -166 6 -11 19 -33 29 -50 30 -46 162 -289 177 -325 24 -57 131 -266 138 -272 5 -3 16 -4 25 -1 19 6 151 59 198 79 69 31 100 44 167 70 37 15 70 34 73 41 4 11 -48 125 -107 233 -4 8 -19 38 -32 65 -33 67 -98 187 -109 201 -5 6 -24 40 -43 76 -78 151 -241 404 -330 513 -151 187 -274 278 -445 329 -76 23 -278 22 -346 -2 -166 -59 -284 -153 -479 -383 -47 -56 -146 -187 -146 -194 0 -4 -13 -24 -30 -45 -16 -21 -30 -40 -30 -43 0 -3 -13 -26 -30 -50 -16 -25 -30 -48 -30 -53 0 -4 -6 -15 -14 -23 -7 -9 -28 -42 -45 -73 -17 -32 -45 -84 -62 -115 -42 -76 -56 -105 -63 -123 -3 -8 -10 -22 -15 -30 -10 -15 -112 -226 -186 -385 -187 -398 -251 -531 -321 -660 -18 -33 -44 -82 -58 -110 -15 -27 -48 -90 -76 -140 -27 -49 -60 -112 -75 -140 -14 -27 -41 -77 -60 -110 -19 -33 -38 -67 -42 -75 -4 -8 -25 -46 -48 -85 -22 -38 -44 -77 -48 -85 -4 -8 -13 -24 -20 -35 -7 -11 -41 -69 -77 -129 -36 -60 -73 -120 -82 -135 -10 -14 -22 -35 -28 -46 -56 -106 -293 -435 -474 -659 -87 -107 -426 -454 -491 -501 -22 -16 -48 -37 -57 -46 -16 -16 -135 -100 -176 -124 -9 -6 -37 -23 -61 -39 -71 -46 -191 -106 -210 -106 -34 0 -95 32 -228 119 -102 66 -132 91 -130 105 2 19 71 59 202 117 209 92 374 185 525 295 76 55 247 224 339 333 137 164 318 407 344 461 4 8 16 29 27 45 11 17 23 37 27 45 6 14 110 194 132 230 5 8 35 65 66 125 31 61 60 117 65 125 5 8 28 58 53 110 24 52 58 125 76 162 17 37 31 72 31 77 0 5 6 22 14 38 8 15 28 62 44 103 16 41 44 111 62 155 18 44 38 96 45 115 7 19 20 53 28 75 25 63 68 187 76 220 4 17 13 40 19 52 7 12 12 29 12 38 0 9 6 31 13 48 13 30 25 69 62 197 9 30 22 75 29 100 18 61 43 148 62 218 9 31 20 71 26 87 5 17 12 41 14 55 3 14 11 49 19 78 8 28 22 76 30 105 8 28 16 63 19 77 3 14 10 45 16 70 35 133 65 277 74 350 2 19 10 73 16 119 15 109 8 442 -10 491 -60 160 -154 259 -315 335 -93 43 -160 58 -290 62 -132 5 -280 -18 -480 -72 -145 -39 -173 -48 -205 -60 -19 -7 -64 -22 -100 -34 -225 -70 -432 -152 -673 -265 -54 -25 -102 -46 -106 -46 -4 0 -17 -10 -28 -22 -21 -23 -21 -23 -3 -58 11 -19 22 -42 25 -50 24 -55 71 -155 84 -180 4 -8 16 -33 26 -55 9 -22 21 -47 26 -55 5 -8 13 -25 19 -37 13 -31 31 -29 114 11 116 56 183 86 189 86 3 0 35 14 70 30 36 17 70 30 75 30 6 0 23 6 39 14 15 8 53 24 83 36 30 12 64 25 75 29 23 10 113 44 220 84 43 16 106 35 198 61 31 9 83 24 114 33 41 13 93 18 184 18 128 0 128 0 158 -29 40 -38 46 -78 27 -168 -8 -40 -20 -104 -26 -143 -19 -123 -28 -174 -34 -183 -3 -6 -10 -36 -15 -69 -5 -32 -19 -96 -31 -143 -11 -47 -25 -106 -30 -132 -5 -27 -12 -52 -15 -58 -3 -6 -10 -31 -15 -58 -5 -26 -18 -83 -30 -127 -12 -44 -25 -96 -29 -115 -4 -19 -12 -51 -18 -70 -6 -19 -19 -62 -28 -95 -39 -141 -48 -172 -60 -210 -6 -22 -20 -67 -30 -100 -9 -33 -21 -71 -26 -84 -6 -13 -27 -76 -49 -140 -61 -179 -71 -205 -81 -215 -5 -6 -9 -18 -9 -28 0 -9 -6 -32 -14 -50 -8 -18 -21 -51 -29 -73 -17 -46 -73 -184 -93 -232 -28 -66 -44 -104 -58 -135 -8 -18 -25 -55 -37 -83 -75 -170 -225 -461 -280 -543 -16 -24 -29 -45 -29 -47 0 -2 -28 -46 -62 -97 -197 -297 -372 -478 -623 -642 -155 -102 -394 -199 -555 -226 -25 -4 -72 -13 -105 -18 -33 -6 -91 -16 -130 -23 -123 -21 -190 -23 -204 -5 -8 9 -19 16 -26 16 -7 0 -54 39 -106 87 -100 94 -589 582 -676 675 -99 108 -319 373 -425 513 -37 50 -72 95 -77 101 -5 6 -56 81 -114 167 -189 280 -293 461 -475 822 -79 158 -142 290 -142 300 0 3 -13 33 -28 67 -16 35 -37 83 -47 108 -9 25 -23 59 -30 75 -14 31 -21 51 -76 195 -17 47 -36 94 -40 105 -14 34 -40 108 -48 140 -5 17 -13 41 -19 55 -17 43 -96 309 -106 360 -3 14 -10 45 -16 70 -23 88 -39 156 -54 225 -8 39 -20 94 -27 124 -6 29 -15 79 -20 110 -4 31 -13 81 -19 111 -34 171 -40 209 -40 245 0 22 -4 56 -10 75 -5 19 -14 96 -20 170 -5 74 -15 176 -21 225 -16 118 -15 954 0 1085 6 52 16 149 21 215 5 66 14 153 20 195 20 136 41 264 51 315 6 28 14 77 19 110 4 33 13 80 18 105 25 105 42 189 42 211 0 13 6 41 14 64 8 22 22 69 31 105 48 186 98 358 132 455 13 39 28 85 33 104 5 18 13 38 19 44 6 6 11 19 11 29 0 9 6 32 14 50 8 18 21 51 29 73 19 52 76 192 93 230 7 17 22 50 32 75 54 123 81 180 169 355 52 105 115 226 139 270 24 44 51 94 59 110 9 17 20 37 25 45 5 8 35 58 66 110 57 96 74 123 180 285 32 50 61 94 63 99 4 10 200 277 224 306 6 8 22 29 34 47 26 38 246 306 311 378 238 264 548 564 787 761 183 152 507 391 623 459 9 6 62 40 117 76 55 36 149 94 210 130 60 35 119 69 130 76 11 6 43 24 70 38 28 14 79 42 115 61 75 41 371 189 415 209 43 18 184 75 225 90 34 12 74 27 163 61 23 9 51 20 62 25 30 13 106 39 140 49 17 4 55 18 85 30 62 23 148 52 230 76 30 8 75 21 100 29 25 7 72 20 105 28 33 9 80 21 105 28 25 7 63 16 85 20 22 4 78 17 125 29 159 39 251 57 400 80 41 6 95 15 120 21 48 10 227 34 375 49 50 5 106 12 125 16 143 25 1035 24 1255 -1z"></path> <path d="M7789 14337 c-93 -45 -166 -78 -272 -122 -84 -35 -93 -45 -74 -82 8 -15 35 -69 60 -119 24 -49 65 -126 89 -170 60 -106 130 -238 253 -479 125 -245 173 -335 213 -401 18 -28 32 -54 32 -57 0 -3 27 -51 60 -107 33 -56 60 -103 60 -105 0 -2 31 -50 69 -107 188 -284 369 -451 559 -518 84 -30 239 -28 326 4 128 46 219 113 334 246 102 116 114 131 147 180 17 25 51 74 76 110 25 36 48 72 52 80 4 8 16 29 27 45 10 17 25 41 33 55 8 14 47 84 87 155 99 176 127 227 210 390 40 77 76 147 80 155 5 8 25 49 46 90 21 41 45 89 55 105 10 17 30 53 44 80 14 28 42 79 61 115 75 135 144 273 144 285 0 11 -34 31 -105 60 -16 7 -102 43 -189 80 -107 46 -163 65 -172 59 -7 -5 -44 -70 -82 -144 -38 -74 -87 -169 -109 -210 -22 -41 -60 -113 -85 -160 -25 -47 -59 -109 -77 -138 -17 -29 -31 -55 -31 -58 0 -2 -10 -21 -23 -42 -13 -20 -41 -68 -62 -107 -21 -38 -51 -95 -68 -125 -16 -30 -45 -84 -64 -120 -112 -212 -174 -323 -189 -341 -8 -8 -14 -18 -14 -21 0 -4 -22 -39 -50 -78 -85 -125 -194 -230 -238 -230 -53 0 -119 53 -203 165 -55 72 -148 214 -184 281 -14 27 -35 63 -45 81 -10 17 -49 89 -86 160 -122 231 -233 436 -260 478 -18 29 -79 140 -115 210 -16 33 -35 69 -41 80 -16 29 -23 42 -63 125 -79 161 -104 205 -117 207 -7 1 -52 -17 -99 -40z"></path> <path d="M6985 13459 c-51 -14 -129 -37 -160 -48 -28 -9 -48 -15 -187 -56 -35 -10 -58 -22 -58 -31 0 -7 9 -44 21 -81 24 -80 42 -145 63 -230 9 -35 22 -89 30 -120 18 -72 39 -164 61 -268 9 -44 23 -102 30 -130 14 -57 37 -162 60 -280 9 -44 20 -99 25 -122 5 -23 17 -111 26 -196 22 -216 10 -252 -89 -276 -51 -12 -125 -4 -242 26 -83 22 -283 89 -415 139 -36 14 -82 32 -102 40 -21 8 -57 21 -80 30 -24 9 -56 22 -73 30 -16 7 -86 36 -155 64 -69 29 -150 64 -180 77 -30 14 -68 31 -85 38 -82 37 -240 112 -328 156 -104 53 -134 59 -143 32 -6 -19 -87 -218 -109 -268 -33 -77 -65 -157 -65 -165 0 -4 71 -43 158 -85 191 -94 246 -119 442 -207 25 -11 72 -33 105 -48 33 -15 78 -34 100 -43 22 -8 60 -23 85 -32 25 -9 61 -23 80 -30 19 -7 53 -19 75 -27 22 -9 56 -20 75 -27 278 -94 438 -141 605 -180 137 -33 380 -31 465 2 277 109 419 324 408 617 -4 99 -27 280 -47 380 -32 152 -44 208 -51 230 -5 14 -11 41 -15 60 -3 19 -12 58 -20 85 -14 52 -37 139 -60 235 -7 30 -18 75 -25 100 -6 25 -17 72 -25 105 -15 66 -42 181 -56 235 -4 19 -15 62 -22 96 -14 59 -31 116 -48 162 -9 23 -24 26 -74 11z"></path> <path d="M10924 13458 c-10 -15 -31 -83 -45 -147 -5 -25 -13 -59 -18 -75 -5 -17 -17 -67 -26 -111 -9 -44 -23 -102 -31 -129 -8 -26 -14 -59 -14 -72 0 -13 -6 -41 -14 -61 -7 -21 -19 -63 -25 -93 -7 -30 -16 -73 -21 -95 -5 -22 -14 -65 -21 -95 -6 -30 -18 -72 -25 -93 -8 -20 -14 -48 -14 -61 0 -13 -6 -46 -14 -72 -8 -27 -21 -85 -31 -129 -9 -44 -20 -100 -26 -125 -11 -54 -24 -153 -39 -310 -9 -103 -8 -124 9 -200 29 -132 53 -176 148 -274 125 -129 225 -180 405 -206 67 -10 100 -10 144 -2 32 7 73 12 93 12 78 0 363 76 521 138 14 5 43 17 65 25 100 37 248 99 298 123 16 8 33 14 38 14 9 0 75 29 206 91 35 16 65 29 68 29 3 0 35 14 72 31 72 33 109 50 315 148 70 34 130 61 133 61 4 0 20 9 36 21 38 27 37 33 -63 249 -16 36 -39 85 -50 110 -57 125 -54 123 -122 91 -44 -20 -135 -61 -206 -93 -25 -11 -73 -33 -107 -49 -35 -16 -67 -29 -72 -29 -5 0 -22 -7 -38 -15 -60 -32 -225 -105 -237 -105 -6 0 -16 -4 -21 -9 -6 -5 -50 -25 -100 -46 -49 -20 -103 -42 -120 -50 -16 -7 -66 -27 -110 -45 -44 -17 -89 -37 -100 -43 -11 -5 -33 -14 -50 -18 -16 -4 -55 -17 -85 -29 -158 -61 -353 -110 -437 -110 -47 0 -96 38 -107 84 -10 45 8 307 24 336 6 10 10 34 10 52 0 18 5 49 11 68 5 19 14 58 19 85 17 95 40 190 50 207 5 10 10 30 10 44 0 15 6 50 14 78 8 28 22 87 32 131 9 44 23 100 30 124 8 25 14 54 14 67 0 12 6 44 14 70 8 27 22 78 31 114 27 107 47 173 63 212 19 47 10 59 -55 76 -125 35 -161 45 -203 58 -185 55 -215 61 -226 42z"></path> <path d="M8805 11002 c-33 -4 -66 -11 -73 -15 -7 -5 -37 -12 -65 -17 -29 -4 -68 -13 -87 -20 -19 -7 -53 -19 -75 -27 -146 -53 -313 -155 -443 -270 -67 -59 -192 -219 -230 -293 -13 -25 -27 -52 -32 -60 -14 -24 -57 -122 -75 -171 -56 -155 -69 -238 -69 -434 0 -158 9 -244 37 -360 86 -351 355 -689 674 -844 48 -24 95 -48 103 -52 8 -5 20 -11 25 -13 6 -1 26 -9 45 -15 195 -69 507 -96 685 -60 191 39 278 70 425 151 175 96 384 299 488 473 86 143 154 307 172 415 5 25 14 76 20 114 15 84 9 350 -9 421 -47 184 -114 345 -196 470 -99 152 -248 303 -389 395 -80 53 -267 143 -336 163 -30 8 -82 23 -115 33 -65 19 -364 28 -480 16z m332 -523 c15 -6 51 -15 78 -20 28 -5 59 -13 70 -18 212 -92 323 -185 433 -366 59 -97 102 -265 102 -395 -1 -117 -31 -266 -69 -338 -5 -9 -12 -24 -15 -32 -19 -51 -141 -204 -203 -256 -32 -27 -60 -51 -63 -54 -6 -6 -34 -22 -113 -64 -152 -80 -347 -105 -532 -68 -132 26 -279 100 -393 198 -115 98 -229 308 -248 454 -2 19 -9 67 -14 105 -8 54 -7 92 4 165 16 101 40 188 56 204 6 6 10 16 10 24 0 26 93 158 154 217 65 64 171 138 246 172 94 43 121 53 143 54 12 0 38 7 57 14 43 17 257 20 297 4z"></path> <path d="M12795 10818 c-33 -16 -67 -34 -75 -39 -8 -4 -49 -26 -90 -47 -41 -22 -91 -49 -110 -60 -19 -12 -57 -32 -85 -46 -27 -14 -79 -42 -115 -62 -36 -20 -85 -47 -110 -61 -25 -13 -58 -33 -75 -44 -16 -10 -39 -23 -50 -28 -11 -5 -37 -21 -58 -35 -21 -14 -40 -26 -43 -26 -3 0 -17 -8 -32 -19 -15 -10 -76 -51 -137 -91 -271 -179 -459 -366 -530 -530 -29 -65 -29 -276 0 -340 37 -85 139 -211 235 -290 89 -74 209 -163 290 -215 41 -26 94 -61 118 -76 24 -16 45 -29 47 -29 2 0 26 -13 53 -29 103 -61 176 -99 497 -261 182 -92 373 -190 425 -218 52 -28 137 -73 188 -99 l93 -48 19 25 c11 14 45 75 75 135 31 61 74 142 95 180 22 39 39 78 40 87 0 20 -41 48 -150 103 -41 20 -84 42 -95 48 -11 5 -146 74 -300 152 -269 137 -319 163 -520 270 -315 168 -551 331 -591 408 -13 23 -13 31 0 55 23 44 124 133 233 204 131 87 679 414 773 463 41 21 98 51 125 67 28 16 76 41 108 56 35 16 57 33 57 43 0 19 -24 70 -88 191 -26 48 -65 121 -86 163 -25 46 -45 75 -55 74 -9 0 -43 -14 -76 -31z"></path> <path d="M5071 10798 c-111 -211 -172 -322 -182 -332 -5 -6 -9 -20 -9 -32 0 -16 14 -29 58 -51 31 -16 107 -55 167 -88 61 -32 135 -71 165 -87 30 -16 62 -33 70 -38 20 -13 289 -170 315 -185 23 -12 113 -70 195 -124 181 -119 340 -260 340 -300 0 -26 -85 -116 -171 -181 -66 -51 -320 -210 -334 -210 -3 0 -24 -12 -48 -27 -54 -35 -180 -100 -607 -314 -377 -190 -510 -263 -510 -282 0 -7 6 -21 14 -32 7 -11 30 -51 51 -90 21 -38 53 -97 71 -130 19 -33 36 -66 39 -72 3 -7 7 -19 10 -25 15 -36 44 -73 59 -76 16 -4 105 39 276 131 36 20 128 67 205 106 77 39 160 82 185 95 25 13 52 27 60 30 8 3 29 14 45 25 17 10 78 43 135 73 58 31 121 65 140 76 19 12 49 28 65 36 17 8 53 28 80 45 28 16 68 39 90 51 219 119 505 354 589 485 79 124 80 128 80 270 l0 130 -39 79 c-23 45 -68 110 -106 152 -76 86 -209 207 -304 279 -73 54 -253 177 -275 188 -8 4 -28 16 -45 27 -16 11 -37 23 -45 27 -8 4 -31 18 -50 31 -19 13 -44 28 -55 33 -11 5 -34 18 -52 29 -103 62 -613 320 -633 320 -9 0 -27 -19 -39 -42z"></path> <path d="M10874 8129 c-56 -20 -134 -61 -174 -91 -57 -43 -136 -130 -156 -170 -55 -114 -54 -104 -54 -351 0 -128 5 -259 11 -292 6 -33 14 -87 19 -120 9 -68 33 -187 51 -255 13 -49 28 -107 54 -210 9 -36 23 -85 31 -110 8 -25 14 -55 14 -68 0 -13 4 -31 10 -41 5 -10 16 -49 25 -87 9 -38 20 -85 24 -104 5 -19 16 -64 24 -100 43 -187 92 -367 115 -422 8 -21 20 -38 26 -38 6 0 49 11 96 26 47 14 110 32 140 41 30 9 73 22 95 29 22 6 60 18 84 25 52 15 58 28 38 77 -25 61 -85 277 -122 437 -9 39 -22 95 -30 125 -8 30 -21 85 -29 123 -9 37 -22 95 -30 130 -9 34 -25 103 -36 152 -12 50 -25 104 -30 120 -5 17 -16 66 -25 110 -9 44 -20 94 -25 110 -5 17 -12 57 -16 90 -3 33 -12 82 -20 109 -8 27 -14 89 -14 136 0 77 3 89 23 108 60 56 217 49 422 -20 17 -5 44 -13 60 -18 37 -10 110 -36 215 -75 22 -8 57 -21 78 -29 71 -27 267 -107 295 -122 16 -8 33 -14 39 -14 6 0 36 -12 67 -26 31 -14 76 -35 101 -46 25 -10 73 -33 107 -50 34 -17 68 -28 76 -25 11 4 39 56 87 162 30 67 81 177 102 223 11 24 17 49 14 57 -3 8 -85 53 -183 100 -98 47 -191 92 -206 100 -16 8 -35 15 -42 15 -7 0 -26 6 -42 14 -15 8 -48 22 -73 31 -25 9 -60 23 -78 31 -18 8 -40 14 -50 14 -9 0 -26 7 -36 15 -11 8 -32 15 -46 15 -14 0 -30 4 -35 8 -6 5 -44 19 -85 31 -41 12 -88 27 -105 32 -16 6 -39 13 -50 15 -22 6 -111 30 -161 45 -100 30 -201 42 -364 44 -149 2 -183 0 -226 -16z"></path> </g> </svg>